<svg xmlns="http://www.w3.org/2000/svg" xmlns:xlink="http://www.w3.org/1999/xlink" width="119.085" height="51.956" viewBox="0 0 119.085 51.956">
  <defs>
    <clipPath id="clip-path">
      <rect id="Rectangle_370" data-name="Rectangle 370" width="119.085" height="51.956" fill="#16062d"/>
    </clipPath>
  </defs>
  <g id="download" clip-path="url(#clip-path)">
    <path id="Path_11913" data-name="Path 11913" d="M47.437,44.033a17.344,17.344,0,0,0-.931-6.328,12.568,12.568,0,0,0-4.917-7.069,13.745,13.745,0,0,1-7,3.736L15.707,38.184a13.883,13.883,0,0,1-2.472.269V59.819h13.84c2.55,0,20.365,2.1,20.365-15.295C47.442,44.365,47.442,44.2,47.437,44.033ZM28.2,53.3H22.842V41.281s2.008-4.608,6.86-4.608c5.773,0,7.8,3.824,7.8,7.849A9.207,9.207,0,0,1,28.2,53.3Z" transform="translate(-3.684 -8.529)" fill="#16062d"/>
    <path id="Path_11914" data-name="Path 11914" d="M74.589,53.82h-9.7V13.692l9.7-4.6Z" transform="translate(-18.064 -2.53)" fill="#16062d"/>
    <path id="Path_11915" data-name="Path 11915" d="M144.741,16.672c2.689-1.136,6.782-.3,8.634.176l1.27-7.977a21.154,21.154,0,0,0-5.617-.691c-11.6,0-17.115,7.891-17.115,14.878H129l-1.26,7.866h4.176V53.567h9.7V30.924h9.517l1.253-7.866h-10.77s.035-.752.035-1.353C141.652,18.6,143.055,17.386,144.741,16.672Z" transform="translate(-35.561 -2.277)" fill="#16062d"/>
    <path id="Path_11916" data-name="Path 11916" d="M154.137,68.552a3.474,3.474,0,0,1-2.547-.96,3.826,3.826,0,0,1,0-5.106,3.51,3.51,0,0,1,2.547-.948,3.456,3.456,0,0,1,2.53.955,3.823,3.823,0,0,1-.005,5.1A3.457,3.457,0,0,1,154.137,68.552Zm0-1.078a2.2,2.2,0,0,0,1.639-.6,2.558,2.558,0,0,0,.587-1.858,2.41,2.41,0,0,0-.612-1.815,2.219,2.219,0,0,0-1.6-.588,2.277,2.277,0,0,0-1.647.6,3.043,3.043,0,0,0,0,3.675A2.284,2.284,0,0,0,154.137,67.474Zm-1.2-.88V63.421h1.287a1.512,1.512,0,0,1,.976.271,1.012,1.012,0,0,1-.211,1.649l.608,1.252h-1.039l-.507-1.028h-.11v1.028Zm1-1.735h.16a.41.41,0,0,0,.284-.1.327.327,0,0,0,.11-.262c0-.224-.136-.334-.409-.334h-.148v.694Z" transform="translate(-41.93 -17.132)" fill="#16062d"/>
    <path id="Path_11917" data-name="Path 11917" d="M113.339,28.912h-9.6V53.1c-1.764,0-3.82-.008-5.2-.008-3.363,0-5.753-.075-5.753-4.158V28.912h-9.7V51.947c0,4.1,2.455,8.057,11.2,8.057,6.327,0,17.567-.533,18.877-.6h.178Z" transform="translate(-23.129 -8.049)" fill="#16062d"/>
    <path id="Path_11918" data-name="Path 11918" d="M27.537,16.927a2.4,2.4,0,0,0-1-.752,2.149,2.149,0,0,0-1.247-.106,2.212,2.212,0,0,0-1.119.583,2.409,2.409,0,0,0-.65,1.086,2.794,2.794,0,0,0-.038,1.355,2.763,2.763,0,0,0,.557,1.224,2.446,2.446,0,0,0,1.019.739,2.208,2.208,0,0,0,1.257.1,2.167,2.167,0,0,0,1.109-.581,2.375,2.375,0,0,0,.635-1.073,2.844,2.844,0,0,0,.033-1.345A2.912,2.912,0,0,0,27.537,16.927Z" transform="translate(-6.519 -4.461)" fill="#16062d"/>
    <path id="Path_11919" data-name="Path 11919" d="M8.689,4.912C8.16,6.081,1.862,19.936,0,23.913,7.623,18.955,8.983,11,8.689,4.912Z" transform="translate(0 -1.368)" fill="#16062d"/>
    <path id="Path_11920" data-name="Path 11920" d="M40.277,9.829A12.231,12.231,0,0,0,25.87.244l-15.353,2.9A25.593,25.593,0,0,1,7.99,16.494l1.242,2.165.035-.008.889-7.311,2.743-.556-1.6,9.709-3.25.659L6.574,18.787a20.5,20.5,0,0,1-6.139,5.6,12.212,12.212,0,0,0,11.392,3.685l18.882-3.814A12.249,12.249,0,0,0,40.277,9.829ZM24.311,15.767a4.2,4.2,0,0,1-1.092,1.981,3.767,3.767,0,0,1-1.97,1.031,3.468,3.468,0,0,1-1.88-.116A3.572,3.572,0,0,1,17.8,17.55l-.018,0,1.062,5.267-2.638.533L13.644,10.631l2.216-.448.7,1.491.018,0a4.066,4.066,0,0,1,1.026-1.629A3.389,3.389,0,0,1,19.3,9.2a3.807,3.807,0,0,1,2.234.181A4.2,4.2,0,0,1,23.31,10.77a5.8,5.8,0,0,1,1.022,2.4A5.883,5.883,0,0,1,24.311,15.767Zm8.19.445L31.419,10.84a1.818,1.818,0,0,0-.673-1.156,1.47,1.47,0,0,0-1.22-.239,2.143,2.143,0,0,0-.986.465,1.832,1.832,0,0,0-.57.895,2.321,2.321,0,0,0-.045,1.146l1,4.985-2.638.533L24.475,8.447l2.251-.455.7,1.456.018,0A3.815,3.815,0,0,1,28.5,7.826a3.7,3.7,0,0,1,1.752-.84,3.274,3.274,0,0,1,1.677.055,2.649,2.649,0,0,1,1.257.882A3.736,3.736,0,0,1,33.9,9.55l1.235,6.131Z" transform="translate(-0.121 0)" fill="#16062d"/>
  </g>
</svg>
