<svg id="g12" xmlns="http://www.w3.org/2000/svg" xmlns:xlink="http://www.w3.org/1999/xlink" width="259.895" height="197.183" viewBox="0 0 259.895 197.183">
  <defs>
    <clipPath id="clip-path">
      <path id="path16" d="M0-844.523H259.9V-647.34H0Z" transform="translate(0 844.523)"/>
    </clipPath>
  </defs>
  <path id="Path_11722" data-name="Path 11722" d="M127.041,48.386,114.979,68.517,60.4,143.671l78.732,20.578,28.406-38.7s21.027-31.09,21.7-37.353S195.5,62.925,195.5,62.925l-6.262-11.184-21.7-4.921L144.056,41.9Z" fill="#fbe34e"/>
  <g id="g14" clip-path="url(#clip-path)">
    <g id="g20" transform="translate(55.549 15.778)">
      <path id="path22" d="M-398.148-308.423A23.5,23.5,0,0,0-411-328.114a23.5,23.5,0,0,0-23.034,1,23.5,23.5,0,0,0-12.824-19.16,23.4,23.4,0,0,0-13.108-2.4c5.151-8.386,9.418-15.59,12.189-20.328l17.391-6.313c1.468.315,5.266,1.128,10.04,2.147q-.041,1.495-.075,2.99c-.037,1.541-.073,3.039-.12,4.493a9.877,9.877,0,0,0-2.438.408c-3.06.99-5.19,3.077-5.7,5.585a6.929,6.929,0,0,0,1.7,5.834,11,11,0,0,0,4.332,2.9,30.662,30.662,0,0,0,8.051,1.78,26.144,26.144,0,0,0,2.947.2,11.965,11.965,0,0,0,2.943-.338,7.546,7.546,0,0,0,5.411-4.56c1.049-2.917-.216-6.427-3.076-8.536a11.66,11.66,0,0,0-2.466-1.36c.082-2.019.133-4.118.185-6.293.005-.2.01-.408.015-.613,14.921,3.161,19.645,4.11,21.277,4.395a121.479,121.479,0,0,1,7.091,10.922c-2.514,15.655-7.864,29.864-17.287,45.944-.194.331-.393.663-.59.995M-437.2-254.95a1.18,1.18,0,0,1-.276.258c-4.435-1.171-18.228-4.8-34.327-8.923-3.924-9.889-3.8-18.139-1.566-19.861.9-.69,2.515-.289,3.717.168a20.963,20.963,0,0,1,4.181,2.287,36.119,36.119,0,0,0-7.691-.156l.393,4.653c7.995-.676,13.81,1.674,19.966,4.161,4.314,1.743,8.775,3.546,14.012,4.244l.617-4.629c-4.652-.62-8.649-2.235-12.88-3.945l-.264-.107c9.51-.548,24.954-1.652,36.729-7.175-7.132,9.7-14.916,19.507-22.612,29.023m-52.154-13.117a12.6,12.6,0,0,0,1.025-2.733l.245.091c1.114-3.019,2.058-5.85,2.891-8.348,2.017-6.049,3.922-11.763,6.015-12.3,1.01-.258,2.6.274,4.768,1.587a7.849,7.849,0,0,0-2.762,1.366c-3.291,2.538-4.587,7.545-3.75,14.479a47.893,47.893,0,0,0,1.869,8.462c-3.4-.864-6.853-1.737-10.3-2.6m-25.394-6.539a.5.5,0,0,1,.134-.413,63.964,63.964,0,0,0,7.567-7l15.131,13.313c-7.929-1.981-15.739-3.9-22.692-5.54a.532.532,0,0,1-.139-.357m34.475-42.443c1.515,7.5,4.991,15.1,8.646,21.708-3.687-2.132-6.533-2.711-9.105-2.048-5.375,1.384-7.469,7.667-10.368,16.363l-.08.238a13.06,13.06,0,0,0-12.547-4.9c7.322-8.386,15.529-19.654,23.454-31.362m64.521-53.017c.261-10.858.557-23.164,5.285-26.66a4.791,4.791,0,0,1,1.58-.767c-3.923,6.08-4.183,16.846-4.434,27.314-.082,3.411-.16,6.633-.362,9.591a.789.789,0,0,1-.787.731h-.84a.788.788,0,0,1-.578-.251.764.764,0,0,1-.208-.575c.189-2.947.264-6.073.344-9.384m-3.542,13.153a5.483,5.483,0,0,0,3.985,1.726h.84a5.477,5.477,0,0,0,5.131-3.6c.067.045.135.089.2.134,1.011.746,1.831,2.145,1.453,3.2a3.025,3.025,0,0,1-2.159,1.612,12.2,12.2,0,0,1-4.222.022,26.542,26.542,0,0,1-6.835-1.473,6.531,6.531,0,0,1-2.55-1.627,2.33,2.33,0,0,1-.642-1.843c.163-.806,1.167-1.618,2.556-2.067a4.145,4.145,0,0,1,.786-.149h0a5.458,5.458,0,0,0,1.462,4.069m15.927-39.813q.065-.048.131-.094a3.9,3.9,0,0,1,2.145,2.315c1.63,4.574-3.03,13.945-6.614,19.25l-.8-.169c.325-9.263,1.176-18.374,5.136-21.3m6.677.657a8.81,8.81,0,0,0-.507-1.156,4.448,4.448,0,0,1,3.178,2.736c1.026,2.683.225,7.358-2.257,13.162a68.893,68.893,0,0,1-3.9,7.661l-2.632-.554c2.92-4.657,8.564-14.983,6.121-21.849m10.307,25.236h0Zm10.859,15.356.127-.825-.425-.718c-.019-.032-1.914-3.235-3.918-6.4-4.179-6.59-5.151-7.372-6.527-7.415-.418-.061-2.189-.391-9.086-1.826,2.872-5.063,8.436-16.33,5.7-23.5a9.161,9.161,0,0,0-6.409-5.6,12.581,12.581,0,0,0-7.446-.094c-3.863-1.007-7.136-.546-9.731,1.372-5.21,3.851-6.481,12.794-6.935,22.574-5.743-1.226-9.884-2.114-9.885-2.114l-.656-.141-20.24,7.348-.426.73c-3.419,5.859-8.74,14.839-15.086,25.068a23.416,23.416,0,0,0-11.991,11.1c-.037.072-.068.145-.1.217h0a24.605,24.605,0,0,0-2.5,11.458q-1.088,1.638-2.187,3.272c-14.885,22.119-26.386,36.327-34.181,42.228a5.115,5.115,0,0,0-1.87,5.2,4.891,4.891,0,0,0,3.63,3.839c11.606,2.743,25.614,6.248,38.566,9.551q.172.41.352.818a9.008,9.008,0,0,0-4.4.333c-5.024,1.7-13.432,7.716-8.637,19.922l17.62-17.341,2.972-1.579c-.026-.05-.05-.1-.077-.148,14.615,3.756,26.762,6.953,30.73,8a4.222,4.222,0,0,0,1.08.14,5.085,5.085,0,0,0,3.9-2.008c14.686-18.16,29.7-37.4,40.042-55.043,9.9-16.894,15.452-31.827,18-48.419" transform="translate(519.426 402.37)" fill="#16062d"/>
    </g>
    <g id="g24" transform="translate(133.524 65.5)">
      <path id="path26" d="M-30.654-9.429A55.2,55.2,0,0,0-39.131-12.3l-.86,4.59A54.775,54.775,0,0,1-32.35-5.078C-27.13-3.044-20.634-.514-14.237.5A125.91,125.91,0,0,1,1.456,3.867L2.843-.592A127.608,127.608,0,0,0-13.5-4.109c-5.9-.938-12.138-3.368-17.15-5.32" transform="translate(39.992 12.301)" fill="#16062d"/>
    </g>
    <g id="g28" transform="translate(98.286 52.581)">
      <path id="path30" d="M-23.088-45.284l-2.434-13.794-4.6.812,2.434,13.793Z" transform="translate(30.121 59.077)" fill="#16062d"/>
    </g>
    <g id="g32" transform="translate(81.073 44.6)">
      <path id="path34" d="M-56.2-81.243-69.178-105.99l-4.135,2.17,12.982,24.747Z" transform="translate(73.313 105.99)" fill="#16062d"/>
    </g>
    <g id="g36" transform="translate(77.522 64.233)">
      <path id="path38" d="M-50.211-35.961-62.381-46.915l-3.124,3.471L-53.334-32.49Z" transform="translate(65.505 46.915)" fill="#16062d"/>
    </g>
    <g id="g40" transform="translate(154.483 122.519)">
      <path id="path42" d="M0-127.35l3.365,3.238c6.021-6.258,17.684-21.879,28.324-39.628l-4.005-2.4C17.334-148.876,5.7-133.269,0-127.35" transform="translate(0 166.141)" fill="#16062d"/>
    </g>
    <g id="g44" transform="translate(184.427 112.082)">
      <path id="path46" d="M-7.564-8.717C-8.28-7.345-8.9-6.159-9.868-4.508l4.026,2.364c1.029-1.752,1.7-3.044,2.418-4.413.413-.791.84-1.609,1.37-2.585l-4.1-2.23c-.549,1.011-.986,1.847-1.407,2.655" transform="translate(9.868 11.372)" fill="#16062d"/>
    </g>
    <g id="g48" transform="translate(191.383 85.962)">
      <path id="path50" d="M-27.566,0a198.512,198.512,0,0,1-8.4,20.379l4.211,2.018a200.932,200.932,0,0,0,8.642-21Z" transform="translate(35.963)" fill="#16062d"/>
    </g>
    <g id="g52" transform="translate(106.943 90.682)">
      <path id="path54" d="M-25.342-47.511a7.656,7.656,0,0,1-3.183-.7c-5.906-2.676-4.837-10.176-3.447-13.767l2.9,1.124-1.452-.562,1.453.56a15.563,15.563,0,0,0-.879,4.423c-.035,1.013-.144,4.1,2.706,5.387,1.929.874,4.039.367,6.269-1.509A17.122,17.122,0,0,0-17.861-56.1l2.645,1.641a20.066,20.066,0,0,1-3.69,4.232,10.034,10.034,0,0,1-6.437,2.72" transform="translate(33.062 61.983)" fill="#fff"/>
    </g>
    <g id="g56" transform="translate(127.041 99.276)">
      <path id="path58" d="M-25.343-47.511a7.656,7.656,0,0,1-3.183-.7c-5.907-2.676-4.837-10.176-3.447-13.767l2.9,1.122a15.578,15.578,0,0,0-.878,4.423c-.035,1.013-.144,4.1,2.706,5.387,4.825,2.189,9.334-4.977,9.378-5.05l2.647,1.639a20.057,20.057,0,0,1-3.69,4.232,10.033,10.033,0,0,1-6.437,2.72" transform="translate(33.063 61.983)" fill="#fff"/>
    </g>
    <g id="g60" transform="translate(137.621 95.14)">
      <path id="path62" d="M-45.063-34.688l-1.152-.473a5.989,5.989,0,0,0-2.332-7.28,8.39,8.39,0,0,0-9.5-.252l-.742-1a9.779,9.779,0,0,1,10.919.207c5.016,3.253,2.83,8.743,2.807,8.8" transform="translate(58.789 45.255)" fill="#fff"/>
    </g>
    <g id="g64" transform="translate(116.78 84.298)">
      <path id="path66" d="M-45.086-34.99l-1.153-.472.576.236-.577-.234a6.146,6.146,0,0,0-2.351-7.3A8.044,8.044,0,0,0-58.064-43l-.756-.989a9.421,9.421,0,0,1,10.945.215,7.486,7.486,0,0,1,2.788,8.784" transform="translate(58.82 45.648)" fill="#fff"/>
    </g>
    <g id="g68" transform="translate(134.561 118.505)">
      <path id="path70" d="M-24.637-16.725a3.854,3.854,0,0,1-4.889,2.41,3.854,3.854,0,0,1-2.41-4.889,3.854,3.854,0,0,1,4.889-2.41,3.855,3.855,0,0,1,2.41,4.889" transform="translate(32.142 21.82)" fill="#fff"/>
    </g>
    <g id="g72" transform="translate(98.658 103.697)">
      <path id="path74" d="M-24.637-16.726a3.854,3.854,0,0,1-4.889,2.41,3.854,3.854,0,0,1-2.41-4.889,3.854,3.854,0,0,1,4.889-2.41,3.854,3.854,0,0,1,2.41,4.889" transform="translate(32.141 21.82)" fill="#fff"/>
    </g>
  </g>
</svg>
