<svg xmlns="http://www.w3.org/2000/svg" width="33.148" height="33.149" viewBox="0 0 33.148 33.149">
  <path id="Path_11896" data-name="Path 11896" d="M101.684,14.536,99.212,5.194l3.683-3.683A.879.879,0,0,0,101.651.268L97.969,3.951,88.626,1.479a.879.879,0,0,0-.847.228L70.261,19.227a.88.88,0,0,0,0,1.243L82.693,32.9a.88.88,0,0,0,1.243,0l17.519-17.519a.879.879,0,0,0,.228-.847Zm-18.369,16.5L72.125,19.848l16.54-16.54L96.53,5.389,93.259,8.66h0a.861.861,0,0,0-.085.1A2.857,2.857,0,1,0,94.4,9.988a.86.86,0,0,0,.1-.085l3.271-3.271L99.854,14.5Z" transform="translate(-70.003 -0.011)"/>
</svg>
