<svg xmlns="http://www.w3.org/2000/svg" width="164.183" height="155.426" viewBox="0 0 164.183 155.426">
  <g id="Subscribe" transform="translate(0 -0.051)">
    <g id="Layer_1" data-name="Layer 1" transform="translate(0 0.051)">
      <path id="Path_11725" data-name="Path 11725" d="M26.5,128.238S34.127,49.281,37.258,45.7s7.156-16.775,20.8-19.459,19.012-3.8,22.367-2.237,2.909,3.132,10.961,4.474,14.091,2.907,14.091,2.907S118,38.545,120.017,45.7s5.593,11.407,2.461,28.854-10.065,65.983-10.065,65.983Z" fill="#fbe34e"/>
      <rect id="Rectangle_313" data-name="Rectangle 313" width="68" height="45" transform="translate(40.095 79.14) rotate(7)" fill="#fbe34e"/>
      <rect id="Rectangle_315" data-name="Rectangle 315" width="62.632" height="32.815" transform="translate(49.73 37.752) rotate(7)" fill="#fff"/>
      <path id="Path_11713" data-name="Path 11713" d="M207.208,30.034a4.077,4.077,0,0,0,1.272-3.584,5.3,5.3,0,0,0-5.512-4.182c-.774.03-1.546.034-2.319.023L200.967,7.3a7.107,7.107,0,0,0-13.439-3.363l-6.786,13.378c-.686-.358-1.367-.717-2.036-1.113a5.3,5.3,0,0,0-6.831,1.095,3.8,3.8,0,0,0-.781,2.172,43.544,43.544,0,0,0-29.724,7.9,38.145,38.145,0,0,0-15.842,26.162c-.878,6.809-1.77,13.69-2.663,20.564-2.315,17.871-4.711,36.336-6.838,53.422a5.53,5.53,0,0,0,4.718,6.136l33.071,4.544c-.394,2.478-.822,5.048-1.3,7.754-.229-.133-.462-.262-.717-.382-5.8-2.82-18.209-4.8-24.485,9.855l31.124.052s-.02-.19-.077-.518l.167.032c1.125-5.791,2.016-10.956,2.779-15.769l5.951.819c-.6,4.5-1.2,9.031-1.774,13.491h0a12.585,12.585,0,0,0-.407,1.935l31.124-.052c-5.458-12.744-15.557-12.9-21.91-10.877q.231-1.736.462-3.467l30.941,4.256a6.081,6.081,0,0,0,6.876-5.232c1.622-12.068,3.285-23.992,4.892-35.521,1.76-12.619,3.584-25.665,5.283-38.494A38.088,38.088,0,0,0,215,37.768a41.571,41.571,0,0,0-7.789-7.734Zm9.922,35.311c-1.7,12.81-3.439,25.266-5.277,38.456-1.613,11.538-3.274,23.474-4.9,35.55a.418.418,0,0,1-.165.283.41.41,0,0,1-.312.082l-84.8-11.664c2.12-17.023,4.507-35.426,6.809-53.22.9-6.876,1.792-13.753,2.663-20.569,2.376-18.415,20.516-31.441,40.443-29.029,1.747.21,3.53.43,5.326.656a53.99,53.99,0,0,0,22.427,5.752,36.924,36.924,0,0,1,10.355,8.6l-7.04-.693c-17.1-1.675-40.526-3.971-54.77-6.221l-2.457-.387-11.775,39.75,3.225.48c19.229,2.867,40.52,5.485,65.093,8.03l2.528.262,2.439-11.25h.057a1.854,1.854,0,0,0-.016-.2l5.584-25.739A32.106,32.106,0,0,1,217.13,65.346ZM205.436,50.434,148.1,43.943l1.371-4.621c14.514,2.15,36.413,4.3,52.641,5.888l4.365.423ZM142.151,64.013l58.724,7.436-.83,3.853c-22.067-2.31-41.458-4.693-59.083-7.257Z" transform="translate(-95.203 -0.051)" fill="#16062d"/>
      <path id="Path_11714" data-name="Path 11714" d="M185.89,477.626l69.752,8.178,5.827-49.716-69.752-8.178Zm10.8-43.418,58.477,6.854L250.664,479.5l-58.482-6.854Z" transform="translate(-152.58 -351.242)" fill="#16062d"/>
      <path id="Path_11715" data-name="Path 11715" d="M365.145,509.26c-5.225-4.55-11.289-3.025-15.4-1.482-1.254.469-4.566,1.717-4.892,5.272-.419,4.542,4.421,8.159,7.992,9.277a17.648,17.648,0,0,0,5.261.867,13.012,13.012,0,0,0,2.573-.249,2.854,2.854,0,0,0,1.245-.258,6.828,6.828,0,0,1,1.032-.31,6.618,6.618,0,0,0,4.121-2.4,7.55,7.55,0,0,0,.28-8.064A10.167,10.167,0,0,0,365.145,509.26Zm-10.61,7.65c-2.163-.677-3.928-2.5-4.032-3.24a5.421,5.421,0,0,1,1.233-.579c4.48-1.684,7.379-1.55,9.676.45a4.6,4.6,0,0,1,.987,1.15,2.188,2.188,0,0,1,.3,1.091C360.557,517.661,358.029,518,354.535,516.91Z" transform="translate(-283.038 -415.531)" fill="#16062d"/>
      <rect id="Rectangle_311" data-name="Rectangle 311" width="5.677" height="18.587" transform="translate(21.093 9.83) rotate(-21.31)" fill="#16062d"/>
      <path id="Path_11716" data-name="Path 11716" d="M27.709,104.26l4.541-3.4C31.244,99.513,27.591,95.587,21.7,89.28c-4.344-4.648-9.266-9.916-10.16-11.11L7,81.576c1.005,1.342,4.659,5.27,10.553,11.579C21.894,97.8,26.815,103.069,27.709,104.26Z" transform="translate(-5.746 -64.172)" fill="#16062d"/>
      <path id="Path_11717" data-name="Path 11717" d="M0,200.193a144.9,144.9,0,0,0,16.05,9.139l2.489-5.1a139.42,139.42,0,0,1-15.41-8.78Z" transform="translate(0 -160.436)" fill="#16062d"/>
      <path id="Path_11718" data-name="Path 11718" d="M728.439,65.75C726,69.368,717.688,79.076,714.67,81.34l3.4,4.546C721.938,83,730.665,72.6,733.146,68.923Z" transform="translate(-586.608 -53.977)" fill="#16062d"/>
      <path id="Path_11719" data-name="Path 11719" d="M784.994,122.016l-3.26-4.646c-3.166,2.22-7.9,4.9-12.468,7.5-4.689,2.661-9.54,5.412-12.927,7.789L759.6,137.3c3.165-2.22,7.893-4.9,12.468-7.5C776.757,127.145,781.606,124.394,784.994,122.016Z" transform="translate(-620.811 -96.347)" fill="#16062d"/>
      <rect id="Rectangle_312" data-name="Rectangle 312" width="18.306" height="5.677" transform="translate(140.276 48.679) rotate(-16.67)" fill="#16062d"/>
      <path id="Path_11720" data-name="Path 11720" d="M451.072,305.244a11.348,11.348,0,0,1,1.331-9.624l2.07.235a5.883,5.883,0,1,0,10.572,1.2l7.526.851a11.341,11.341,0,0,1-1.012,9.934Z" transform="translate(-369.814 -242.657)" fill="#fff"/>
      <path id="Path_11721" data-name="Path 11721" d="M310.083,288.9a11.353,11.353,0,0,1,1.349-9.282l2.07.235a5.885,5.885,0,1,0,10.664,1.208l7.526.851a11.325,11.325,0,0,1-.912,9.61Z" transform="translate(-254.152 -229.524)" fill="#fff"/>
    </g>
  </g>
</svg>
